<svg version="1.1" id="Layer_1" xmlns="http://www.w3.org/2000/svg" xmlns:xlink="http://www.w3.org/1999/xlink" x="0px" y="0px"
	 width="100%" viewBox="0 0 1024 528" enable-background="new 0 0 1024 528" xml:space="preserve">
<path fill="#000000" opacity="1.000000" stroke="none" 
	d="
M491.269104,93.888367 
	C512.821899,89.728958 533.141052,92.510231 552.617493,101.415245 
	C566.178772,107.615715 577.741638,116.471375 586.398621,128.753128 
	C592.565552,137.502228 592.713684,144.380875 586.412903,153.141190 
	C575.255981,168.653122 560.274109,179.316284 542.141418,184.977768 
	C504.816589,196.631516 471.478577,189.235947 442.544128,162.759338 
	C438.585266,159.136780 435.326965,154.922287 432.800385,150.167953 
	C428.869293,142.770782 429.645447,135.591644 434.434265,129.007416 
	C446.892059,111.878975 463.843048,101.320328 484.093201,95.762352 
	C486.339905,95.145721 488.599640,94.576569 491.269104,93.888367 
M486.267120,128.330338 
	C485.556183,131.803665 486.004028,135.298294 486.090424,138.784378 
	C486.163086,141.715683 487.476898,142.604874 490.569244,142.471878 
	C496.554474,142.214462 502.630981,143.212143 508.552399,142.584106 
	C514.451721,141.958420 521.186340,145.557175 526.048828,139.450409 
	C527.825195,140.487091 529.339111,141.509216 530.969849,142.285950 
	C532.849365,143.181152 535.160278,143.080261 535.352600,140.780243 
	C535.815674,135.241028 537.811157,129.240219 532.136047,124.663002 
	C533.203491,123.840843 534.070679,123.061485 535.040894,122.443970 
	C540.500305,118.969307 546.545471,121.236832 548.667175,127.302673 
	C550.308472,131.994904 550.121460,136.820267 550.204834,141.626801 
	C550.349121,149.949829 550.308777,158.275925 550.385376,166.600372 
	C550.405579,168.793259 550.380981,171.259552 553.479492,171.296021 
	C557.595398,171.344452 563.705322,164.994751 563.731201,160.825226 
	C563.798279,150.006378 563.867859,139.187424 563.883301,128.368454 
	C563.887695,125.288490 564.291260,122.449669 567.402100,120.854301 
	C565.699890,117.584152 562.994019,115.806953 560.354004,114.202110 
	C535.187927,98.904137 508.530121,95.027672 480.477386,104.757507 
	C469.642487,108.515495 459.335785,113.210938 451.446106,122.449898 
	C448.583679,125.801842 445.422058,127.613731 448.197723,132.198486 
	C454.211823,132.433563 453.022491,126.859688 454.868530,123.849312 
	C457.269806,124.678307 456.987000,126.571861 457.038361,128.099136 
	C457.390717,138.573807 458.045074,149.063080 457.750916,159.523727 
	C457.614685,164.367920 459.423401,166.901306 463.227234,169.034225 
	C468.435059,171.954407 469.980835,171.172043 470.086182,165.123993 
	C470.323822,151.479279 470.493317,137.833328 470.747681,124.188942 
	C470.786987,122.080231 470.308228,119.827812 471.984924,117.754501 
	C475.320099,117.859161 478.782043,117.873932 482.210724,117.169456 
	C486.271301,116.335129 489.606018,117.615997 491.328033,121.474892 
	C493.388306,126.091766 488.126282,125.483841 486.267120,128.330338 
z"/>
<path fill="#000000" opacity="1.000000" stroke="none" 
	d="
M637.233826,354.997070 
	C643.299683,351.602814 649.284119,353.313812 655.512573,353.615753 
	C655.777954,357.116791 654.190918,359.539276 653.020752,362.015594 
	C642.561096,384.149353 626.763428,402.014374 608.218750,417.628357 
	C581.030334,440.520081 550.178711,457.064270 517.210144,469.912659 
	C514.670837,470.902222 512.240479,471.451538 509.489868,470.378387 
	C467.611237,454.039337 428.930328,432.684937 397.894867,399.336334 
	C386.794556,387.408722 377.941101,373.949554 371.157135,359.142670 
	C370.427002,357.548950 369.238770,355.992737 369.789215,353.470734 
	C375.086365,352.751068 380.502197,352.916534 385.912018,353.390198 
	C387.378723,353.518616 388.038544,354.854980 388.651978,356.067169 
	C407.187103,392.694183 438.531311,415.605469 473.217407,434.882477 
	C483.855621,440.794708 495.066528,445.547974 506.158936,450.539398 
	C510.559906,452.519775 514.371460,452.606964 518.950317,450.647766 
	C546.962341,438.662140 573.701599,424.587830 597.057617,404.722687 
	C613.470825,390.762634 627.358643,374.751770 637.233826,354.997070 
z"/>
<path fill="#000000" opacity="1.000000" stroke="none" 
	d="
M493.000305,353.651642 
	C535.537048,353.651398 577.573792,353.651398 620.481689,353.651398 
	C616.389709,362.303925 611.249512,368.804199 605.784790,375.039612 
	C582.878845,401.175842 553.722412,418.216553 522.629395,432.631226 
	C515.437195,435.965515 509.583771,435.840820 502.491333,432.547913 
	C474.346497,419.480652 447.793976,404.162262 425.866638,381.780487 
	C419.083496,374.856781 412.916107,367.435577 407.872192,359.133850 
	C406.958740,357.630432 405.451691,356.315918 405.908600,353.651886 
	C434.739319,353.651886 463.619843,353.651886 493.000305,353.651642 
M527.602417,364.428192 
	C494.343506,365.047577 461.051575,363.729340 427.346954,364.829132 
	C429.035889,369.437897 429.044708,369.429352 432.773987,373.277954 
	C454.469757,395.667969 480.753906,411.075012 509.016510,423.508667 
	C511.899780,424.777130 514.407837,424.374725 517.116333,423.214569 
	C542.566162,412.313202 565.944702,398.121521 586.527954,379.510071 
	C590.924377,375.534790 595.024536,371.252289 598.345764,366.339417 
	C598.223267,365.755463 598.100769,365.171539 597.978210,364.587585 
	C574.844849,364.534760 551.711426,364.481934 527.602417,364.428192 
z"/>
<path fill="#000000" opacity="1.000000" stroke="none" 
	d="
M401.319336,313.369446 
	C403.858704,311.388550 403.709259,308.367004 404.398651,305.722015 
	C406.412201,297.996582 408.240234,290.221313 410.032898,282.440674 
	C410.633667,279.833191 411.705200,278.414520 414.720795,278.508026 
	C419.032806,278.641724 423.358917,278.245331 427.680634,278.167023 
	C430.732483,278.111694 432.425385,278.996368 431.267548,282.669189 
	C425.264771,301.710876 419.331024,320.775299 413.570770,339.891357 
	C412.671844,342.874390 411.135742,343.992218 408.264008,343.914337 
	C406.266693,343.860138 404.265778,343.848816 402.268463,343.898529 
	C389.019684,344.228119 391.508575,344.653809 387.729828,332.726807 
	C386.121582,327.650635 384.731689,322.505524 383.146606,317.421661 
	C382.619843,315.732239 382.421600,313.768066 380.513947,312.817017 
	C378.305969,313.118958 378.221039,315.045502 377.761353,316.532166 
	C375.451843,324.001373 373.098206,331.461945 371.044403,339.002991 
	C370.034515,342.711182 368.022247,344.290955 364.240906,343.912506 
	C361.593262,343.647522 358.926941,343.486542 356.266479,343.446686 
	C347.631531,343.317230 347.620819,343.350098 345.160431,335.254028 
	C339.985077,318.224182 334.816650,301.192261 329.656219,284.157867 
	C328.042877,278.832275 328.513000,278.224640 334.268036,278.081360 
	C335.433319,278.052338 336.600098,278.046722 337.765594,278.065216 
	C352.155975,278.293640 349.208527,275.801819 353.027313,290.377716 
	C354.669006,296.643860 355.892731,303.018982 357.338776,309.337158 
	C357.695312,310.895050 357.656494,312.665131 359.298248,313.726624 
	C361.231232,312.642761 361.114105,310.609711 361.581848,308.948975 
	C364.062744,300.140686 366.519165,291.323761 368.811523,282.465149 
	C369.552612,279.601044 371.071503,278.142487 374.000732,278.130432 
	C374.167114,278.129761 374.333710,278.118347 374.499756,278.105652 
	C389.768585,276.938171 389.795990,276.929535 394.355164,291.369385 
	C396.653046,298.647156 398.830841,305.962891 401.319336,313.369446 
z"/>
<path fill="#000000" opacity="1.000000" stroke="none" 
	d="
M668.695374,293.780792 
	C668.684875,289.817108 668.721619,286.321381 668.646606,282.828003 
	C668.583435,279.888397 669.937378,278.574036 672.864746,278.619904 
	C676.857849,278.682465 680.863525,278.806793 684.843811,278.569061 
	C688.762146,278.335022 690.185791,279.951996 690.146484,283.784882 
	C690.030334,295.100464 690.129883,306.418121 690.123535,317.734985 
	C690.119446,324.891083 689.996521,332.048187 690.086914,339.202820 
	C690.129761,342.592590 688.725220,344.089081 685.337585,343.999573 
	C665.135681,343.465607 669.297058,346.736877 668.684082,328.455261 
	C668.633911,326.958801 668.606018,325.461487 668.542419,323.965607 
	C668.396912,320.543671 666.795410,318.956451 663.180298,319.031494 
	C645.409607,319.400513 648.433472,316.649872 648.139038,333.557404 
	C647.955750,344.079895 648.087830,344.082184 637.478699,344.075531 
	C626.799072,344.068787 626.822693,344.068787 626.818115,333.495880 
	C626.811035,317.186127 626.745544,300.876373 626.751770,284.566620 
	C626.754028,278.691650 627.531860,277.955658 633.373047,278.133606 
	C636.691589,278.234680 639.983154,278.731445 643.332214,278.314575 
	C646.738586,277.890533 648.160522,279.696442 648.112000,283.029816 
	C648.046570,287.521912 648.240417,292.019287 648.114990,296.508575 
	C648.015320,300.072510 649.439697,301.797363 653.090332,301.642822 
	C656.081665,301.516235 659.082458,301.437408 662.073792,301.521729 
	C667.177979,301.665588 669.499573,299.416595 668.695374,293.780792 
z"/>
<path fill="#000000" opacity="1.000000" stroke="none" 
	d="
M442.598083,293.698853 
	C443.055054,292.566956 443.394470,291.806610 443.684509,291.027863 
	C448.300781,278.633209 448.297699,278.291962 461.657104,278.228210 
	C478.729004,278.146729 475.013245,275.554993 481.259918,292.046906 
	C486.969116,307.119659 492.736237,322.170746 498.372162,337.270813 
	C500.742615,343.621948 500.379761,343.991608 493.663025,343.982300 
	C490.169830,343.977448 486.666595,343.887177 483.185944,344.113342 
	C479.235229,344.370056 477.156677,342.756775 475.946320,338.934326 
	C473.487030,331.167603 473.308624,331.222778 465.185822,331.125061 
	C463.688751,331.107056 462.191467,331.105347 460.694305,331.095276 
	C450.888184,331.029388 450.865448,331.020508 447.330933,340.122467 
	C446.712372,341.715302 446.187225,343.198639 444.306061,343.752502 
	C442.059296,344.414001 428.378967,343.776947 424.678772,342.418762 
	C430.601501,326.309326 436.529510,310.185577 442.598083,293.698853 
M464.172943,302.789703 
	C463.639374,301.829041 463.575500,300.480652 461.840851,300.232605 
	C459.176056,303.449280 458.723022,307.667145 457.458038,311.508820 
	C456.759491,313.630402 457.980927,314.929047 460.238922,315.241241 
	C465.355225,315.948761 467.350372,313.675751 465.919708,308.706268 
	C465.415741,306.955688 464.925568,305.201172 464.172943,302.789703 
z"/>
<path fill="#000000" opacity="1.000000" stroke="none" 
	d="
M581.764099,326.241516 
	C585.704895,328.363861 589.573364,327.555603 593.356689,327.407501 
	C596.033264,327.302704 597.161316,325.503815 596.973206,322.993134 
	C596.627625,318.379944 599.062439,317.313049 603.121582,317.580109 
	C606.599915,317.808960 610.116150,317.677338 613.603760,317.486786 
	C617.060669,317.297882 618.225525,318.796783 618.368347,322.181671 
	C619.088501,339.247223 614.585876,344.077911 597.514771,344.135498 
	C590.355469,344.159668 583.194458,344.241882 576.036987,344.128082 
	C565.365723,343.958435 559.615417,339.109711 559.129333,328.564575 
	C558.578064,316.605743 558.685181,304.587158 559.157776,292.620300 
	C559.501404,283.918060 564.901550,279.255981 573.667542,278.563782 
	C583.983826,277.749146 594.293823,277.952637 604.595825,278.686523 
	C613.242615,279.302521 618.372620,284.629242 618.310730,293.363617 
	C618.232422,304.429077 620.705444,305.700897 607.439636,304.419525 
	C605.954651,304.276062 604.427124,304.242157 602.949524,304.415222 
	C598.816162,304.899353 596.568298,303.505402 596.811401,298.990875 
	C596.958923,296.250885 595.254211,295.203613 592.690308,295.152710 
	C579.604431,294.893005 580.131042,294.850891 580.408569,306.225769 
	C580.569214,312.808167 579.132446,319.498810 581.764099,326.241516 
z"/>
<path fill="#000000" opacity="1.000000" stroke="none" 
	d="
M590.710815,123.243805 
	C595.221619,123.382973 599.884399,124.396645 598.734314,117.002335 
	C595.783203,115.304039 591.663147,114.230072 592.748535,108.695869 
	C594.623352,99.137016 595.700867,98.157326 605.292908,100.022835 
	C610.517212,101.038895 615.749084,102.021767 620.953308,103.133591 
	C627.045715,104.435204 627.565308,105.538330 626.614258,111.719078 
	C625.890381,116.423317 625.360107,120.727097 618.894653,120.443214 
	C616.664246,120.345291 616.428406,122.754578 616.233826,124.624603 
	C615.969177,127.169205 617.734863,127.565224 619.624512,128.005829 
	C631.944336,130.878403 644.144958,134.162262 656.217773,137.976624 
	C660.729858,139.402191 662.627930,141.448593 662.462524,146.415009 
	C662.085754,157.728210 662.653870,169.074371 662.221130,180.383530 
	C662.014404,185.788208 664.253906,188.124435 668.977783,189.681198 
	C674.814453,191.604675 680.467651,194.088715 686.182861,196.373627 
	C687.198914,196.779861 688.520264,196.891968 688.792664,198.395065 
	C688.092712,199.737747 686.795837,199.273758 685.735657,199.274643 
	C674.076965,199.284409 662.416992,199.144806 650.760193,199.283066 
	C646.857544,199.329330 645.501160,197.886032 645.561218,194.007812 
	C645.744263,182.184952 645.433655,170.351730 645.767456,158.535294 
	C645.895569,154.000381 644.211121,152.086731 640.044922,150.848251 
	C627.585815,147.144592 614.998840,143.993988 602.246277,141.549469 
	C598.415100,140.815048 595.876282,139.674835 595.294861,135.272064 
	C594.731812,131.008301 590.878052,127.893860 590.710815,123.243805 
z"/>
<path fill="#000000" opacity="1.000000" stroke="none" 
	d="
M420.938568,142.185272 
	C408.261963,144.594986 396.184113,147.673798 384.168121,151.055557 
	C380.363525,152.126312 379.273956,154.198990 379.348175,157.903259 
	C379.591278,170.037125 380.167297,182.169601 379.663727,194.315216 
	C379.549194,197.077225 379.489960,199.270309 375.824066,199.245041 
	C363.009644,199.156723 350.194336,199.199829 337.379456,199.161148 
	C336.959595,199.159882 336.540771,198.813873 334.864166,198.072968 
	C342.100159,195.067001 348.357269,192.319443 354.725464,189.859451 
	C362.816406,186.733994 362.865570,186.834549 362.871948,178.246063 
	C362.879974,167.427200 362.972748,156.606766 362.811157,145.790283 
	C362.752747,141.881699 364.130737,139.799393 367.976471,138.541061 
	C379.999847,134.606995 392.093689,131.001068 404.484467,128.399078 
	C409.543976,127.336624 410.537140,125.522148 408.775024,121.734947 
	C408.209167,120.518776 407.557190,119.681007 406.203522,119.929413 
	C401.195953,120.848328 399.921692,117.766090 399.108704,113.745857 
	C397.404236,105.317291 397.975037,104.362946 406.349304,102.740326 
	C412.055939,101.634590 417.781281,100.594513 423.435577,99.259621 
	C427.928558,98.198914 430.464294,99.585625 431.353333,104.198013 
	C432.257935,108.891144 434.366913,113.581680 427.699768,116.256027 
	C425.099274,117.299141 426.729187,120.036255 427.666992,121.946487 
	C428.260651,123.155678 430.166351,122.983986 430.656769,124.780037 
	C428.665466,129.572586 425.265625,134.070801 424.880280,139.776718 
	C424.765930,141.470154 422.742859,141.626938 420.938568,142.185272 
z"/>
<path fill="#000000" opacity="1.000000" stroke="none" 
	d="
M307.067169,247.065674 
	C307.150421,235.614899 307.307373,224.650986 307.270020,213.687759 
	C307.258759,210.382324 308.250793,208.875046 311.831848,208.921310 
	C322.978424,209.065323 334.131165,208.789246 345.276184,208.983673 
	C355.360565,209.159607 359.241486,213.404999 359.297974,223.612289 
	C359.321869,227.928894 359.730225,232.305038 356.566620,235.945801 
	C355.261719,237.447495 356.353516,238.559326 357.324646,239.830688 
	C361.163971,244.857056 361.634918,257.405945 358.290283,262.635803 
	C355.541382,266.934174 351.093475,267.976562 346.556030,268.044464 
	C334.911621,268.218719 323.261658,267.985840 311.614471,268.039581 
	C308.362793,268.054596 307.229187,266.681488 307.279968,263.521118 
	C307.365417,258.200867 307.153290,252.875824 307.067169,247.065674 
M329.010254,243.420151 
	C324.438629,243.419174 325.360657,246.829544 325.343140,249.508362 
	C325.329651,251.565903 324.735168,254.374222 327.839691,254.626709 
	C331.631073,254.935089 335.474640,254.730072 339.288330,254.571075 
	C340.763977,254.509552 341.480560,253.326828 341.881775,251.914581 
	C343.507202,246.193314 341.454285,243.470795 335.384033,243.410080 
	C333.553162,243.391769 331.721985,243.407120 329.010254,243.420151 
M328.127106,231.591919 
	C331.112396,231.584473 334.098419,231.614609 337.082794,231.558716 
	C339.904480,231.505905 341.392212,229.922607 341.426270,227.182556 
	C341.460632,224.419342 340.529205,222.253296 337.230103,222.189499 
	C335.074310,222.147797 332.912628,221.992767 330.764435,222.102234 
	C328.896393,222.197403 326.198151,221.351562 325.671539,223.916092 
	C325.152496,226.443558 324.039307,229.555847 328.127106,231.591919 
z"/>
<path fill="#000000" opacity="1.000000" stroke="none" 
	d="
M417.667572,268.113892 
	C407.963287,269.914062 401.989807,266.331055 399.061920,257.340881 
	C398.352448,255.162354 396.890167,253.232758 395.807983,251.170883 
	C394.566467,248.805420 392.656311,247.930161 390.026184,248.300278 
	C387.137787,248.706757 386.788361,250.970627 386.638275,253.100372 
	C386.417328,256.236176 386.569519,259.397614 386.537415,262.547821 
	C386.528931,263.377930 386.654297,264.309937 386.332642,265.020630 
	C383.468231,271.349670 377.906372,267.009766 373.685913,268.030304 
	C371.220459,268.626434 368.645111,268.050446 368.655853,264.341034 
	C368.705536,247.204605 368.702911,230.067856 368.645599,212.931473 
	C368.636444,210.192978 369.780762,208.935562 372.475800,208.945084 
	C384.785217,208.988571 397.106445,208.707489 409.399689,209.171417 
	C416.653046,209.445175 420.849152,214.311111 421.182068,221.581161 
	C421.394928,226.228821 421.270905,230.896713 421.165894,235.552567 
	C421.083191,239.219421 419.886139,242.652420 416.681213,244.565338 
	C412.985229,246.771378 413.785736,249.109787 415.437286,252.028610 
	C418.119446,256.769012 420.629181,261.606995 423.016479,266.041138 
	C421.522705,268.555359 419.702545,267.951813 417.667572,268.113892 
M393.694946,222.296509 
	C387.472290,222.547180 387.153442,223.190430 386.838959,229.247650 
	C386.553253,234.751465 389.659546,235.173080 393.741272,234.838608 
	C394.400940,234.784561 395.069092,234.837936 395.733337,234.835739 
	C402.628601,234.812790 402.925903,234.260361 402.975128,227.512482 
	C403.024261,220.773300 398.237274,222.635361 393.694946,222.296509 
z"/>
<path fill="#000000" opacity="1.000000" stroke="none" 
	d="
M604.149048,254.893509 
	C606.225281,259.055389 609.055176,262.454132 610.095703,267.684692 
	C604.051331,268.481689 598.197327,268.500031 592.368408,267.738647 
	C590.656616,267.515045 590.132202,265.443298 589.374268,263.964935 
	C586.434570,258.231049 583.472412,252.508621 580.186035,246.137085 
	C575.450317,250.702911 571.498291,254.402924 572.015808,261.189880 
	C572.541199,268.079041 572.133728,268.162628 565.206604,268.146637 
	C552.695557,268.117798 554.067383,269.499939 554.042542,256.927032 
	C554.014954,242.944107 554.146912,228.959198 553.934753,214.979309 
	C553.866943,210.511765 555.232483,208.726440 559.904358,208.874237 
	C572.707458,209.279266 572.151733,207.102341 572.092712,220.887253 
	C572.080200,223.801498 572.090820,226.715836 572.090820,230.433472 
	C576.126709,228.349213 577.443665,225.367249 579.419006,223.049591 
	C580.819397,221.406464 582.028381,219.601059 583.339111,217.880463 
	C590.428162,208.574783 596.301147,206.656219 608.932190,210.031921 
	C604.537109,215.714890 600.647949,221.419785 596.045471,226.475220 
	C592.530090,230.336472 592.260498,233.497009 595.005249,237.863449 
	C598.361023,243.202026 601.023193,248.976593 604.149048,254.893509 
z"/>
<path fill="#000000" opacity="1.000000" stroke="none" 
	d="
M473.674622,219.426575 
	C479.538666,235.486130 485.259766,251.185120 491.243927,267.605896 
	C484.722076,268.467255 479.133728,268.322327 473.577118,267.844757 
	C471.121613,267.633698 470.738098,265.159119 470.395691,263.271149 
	C469.373505,257.634644 466.156342,255.427032 460.561096,256.281921 
	C459.099030,256.505310 457.572296,256.298859 456.075256,256.300964 
	C448.047333,256.312378 447.898010,256.265198 445.459167,263.788849 
	C444.406891,267.035126 442.690338,268.445709 439.319824,268.160217 
	C435.050262,267.798553 430.702728,268.690369 426.666565,267.606567 
	C425.429077,266.103149 426.163757,264.851746 426.601227,263.637390 
	C432.572815,247.061066 438.657837,230.524643 444.477448,213.895294 
	C445.802429,210.109253 447.853973,208.597809 451.798645,208.900757 
	C455.270691,209.167419 458.823792,209.287964 462.263733,208.856445 
	C467.892487,208.150391 471.112732,210.330185 472.319031,215.798859 
	C472.566864,216.922394 473.119537,217.978699 473.674622,219.426575 
M452.983429,239.897552 
	C453.430664,245.216278 457.445648,242.266968 459.860138,242.700058 
	C461.792908,243.046722 463.078857,241.596909 462.715057,239.578766 
	C461.907715,235.100281 460.413513,230.836716 458.647247,226.693420 
	C458.204620,226.687546 457.762024,226.681656 457.319397,226.675766 
	C455.929047,230.842697 454.538696,235.009644 452.983429,239.897552 
z"/>
<path fill="#000000" opacity="1.000000" stroke="none" 
	d="
M615.638977,254.988037 
	C615.632507,241.336716 615.789673,228.180542 615.532104,215.032486 
	C615.443970,210.532471 616.768982,208.791748 621.416321,208.881775 
	C632.899780,209.104233 644.390991,208.898483 655.878845,208.932999 
	C661.604614,208.950195 662.043091,209.548981 662.028809,216.364395 
	C662.015930,222.507950 661.613159,222.942322 655.600281,222.987778 
	C649.939758,223.030594 644.278931,223.046738 638.618286,223.037094 
	C635.850769,223.032379 633.600281,223.486252 633.710815,227.054749 
	C633.816467,230.467117 635.889343,231.100403 638.740906,231.036057 
	C642.568298,230.949661 646.413513,231.220520 650.224792,230.957306 
	C654.869263,230.636566 656.663147,232.623215 656.148621,237.108398 
	C656.016663,238.259094 656.062317,239.440414 656.129333,240.601700 
	C656.301941,243.590240 654.792419,244.846619 651.943970,244.854675 
	C647.781799,244.866455 643.618774,244.979385 639.458008,244.917221 
	C636.089539,244.866882 633.459595,245.455688 633.516907,249.681778 
	C633.571594,253.712723 636.159546,254.056458 639.281128,254.028412 
	C645.107544,253.976044 650.941956,254.250458 656.760498,254.041290 
	C662.555298,253.832993 662.006897,257.662170 661.982788,261.403595 
	C661.959473,265.022400 662.287109,268.410278 656.789246,268.284576 
	C645.140747,268.018311 633.478149,268.026123 621.829346,268.283569 
	C617.051575,268.389191 615.060303,266.785400 615.609558,261.974976 
	C615.853394,259.838776 615.643738,257.650818 615.638977,254.988037 
z"/>
<path fill="#000000" opacity="1.000000" stroke="none" 
	d="
M512.244263,237.013733 
	C512.282898,241.669815 512.373413,245.831116 512.339294,249.991394 
	C512.313782,253.104904 513.766541,254.632629 516.857117,254.618164 
	C518.854004,254.608810 520.851257,254.589584 522.847473,254.539886 
	C526.327881,254.453293 528.701294,253.048508 528.536560,249.193710 
	C528.387817,245.713135 530.376404,244.953079 533.254089,245.048599 
	C534.085083,245.076187 534.979736,244.834900 535.739929,245.064880 
	C539.267639,246.132233 544.881042,242.087708 546.191772,248.312256 
	C548.207458,257.883972 544.948792,264.875366 538.237061,267.175079 
	C536.533020,267.758942 534.663452,268.101837 532.864502,268.124756 
	C525.043030,268.224365 517.215576,268.322357 509.397797,268.124451 
	C498.911652,267.859039 494.647278,263.351349 494.634155,252.935684 
	C494.621155,242.616272 494.573120,232.296402 494.651489,221.977570 
	C494.707794,214.562134 498.063538,210.217422 505.464355,209.485092 
	C515.557068,208.486374 525.760620,208.386520 535.852234,209.566818 
	C542.821472,210.381927 546.037109,214.704056 546.236389,221.978638 
	C546.509888,231.961624 546.509949,231.951019 536.830139,231.907303 
	C532.538879,231.887909 527.801086,232.772095 527.955811,225.922104 
	C527.997437,224.078613 526.172180,223.235291 524.350891,223.118042 
	C522.526428,223.000610 520.689270,223.052689 518.869385,222.895355 
	C513.988586,222.473373 511.698029,224.468552 512.205505,229.531891 
	C512.436768,231.838821 512.243408,234.188309 512.244263,237.013733 
z"/>
<path fill="#000000" opacity="1.000000" stroke="none" 
	d="
M513.094727,329.855133 
	C513.047485,319.724121 512.920044,310.072693 512.995178,300.422882 
	C513.024353,296.678619 511.736023,294.862274 507.752197,295.134552 
	C504.440216,295.360870 501.099335,295.204315 497.772247,295.152557 
	C496.277374,295.129303 494.219482,295.127197 494.049103,293.398712 
	C493.628113,289.128479 493.477264,284.795532 493.700714,280.512939 
	C493.813843,278.344940 496.146515,278.694580 497.746582,278.590729 
	C512.706970,277.620178 527.679688,278.180206 542.648499,278.270874 
	C543.310425,278.274872 543.991516,278.331329 544.629700,278.495270 
	C547.569763,279.250458 551.692322,276.832458 553.383728,280.085754 
	C555.294006,283.759979 554.176758,288.245331 553.864136,292.368866 
	C553.686951,294.705750 551.746216,295.126465 549.806702,295.155029 
	C546.313416,295.206512 542.812439,295.327728 539.327087,295.160278 
	C535.685242,294.985352 534.261475,296.484222 534.290710,300.134369 
	C534.393372,312.945953 534.185913,325.760925 534.376099,338.570435 
	C534.437012,342.673706 533.080078,344.528473 528.935791,344.088898 
	C528.276733,344.019012 527.605591,344.058929 526.940063,344.054047 
	C513.298340,343.954102 513.298340,343.954254 513.094727,329.855133 
z"/>
<path fill="#000000" opacity="1.000000" stroke="none" 
	d="
M701.272888,261.866272 
	C701.931091,267.016754 699.760620,268.420715 695.277405,268.284790 
	C681.532715,267.868042 683.174255,270.028259 683.049683,255.944565 
	C682.973145,247.286179 683.011780,238.626801 682.991089,229.967880 
	C682.974915,223.177200 682.924744,223.133194 675.936340,223.090149 
	C675.603271,223.088089 675.270264,223.090820 674.937195,223.090195 
	C666.567078,223.074432 666.776001,223.069550 666.577698,214.535843 
	C666.480896,210.370285 667.928772,208.955200 671.999878,208.995621 
	C685.486206,209.129547 698.976562,209.137131 712.461853,208.944763 
	C716.700134,208.884293 718.176392,210.686356 717.909790,214.608200 
	C717.808350,216.101212 717.834717,217.603699 717.825989,219.102005 
	C717.809021,222.005630 716.375916,223.061554 713.469543,223.224701 
	C701.285522,223.908554 701.287231,223.987823 701.277832,236.406708 
	C701.271484,244.732651 701.274414,253.058609 701.272888,261.866272 
z"/>
<path fill="#000000" opacity="1.000000" stroke="none" 
	d="
M617.998047,192.577774 
	C622.492676,192.604736 626.488342,192.635040 630.484009,192.658112 
	C632.559265,192.670105 634.067200,193.254898 634.042114,195.750381 
	C634.018677,198.072937 632.781921,199.097412 630.621460,199.103897 
	C618.634827,199.139816 606.647888,199.161423 594.661194,199.141006 
	C591.049133,199.134857 590.897888,196.470322 590.954407,193.874969 
	C591.164124,184.239883 591.159363,184.946732 581.436157,184.938034 
	C577.606812,184.934616 573.777344,184.954910 569.948059,184.941315 
	C567.497131,184.932632 565.045532,184.786835 565.126465,181.410919 
	C565.205994,178.095840 567.678711,177.973724 570.102722,177.955460 
	C575.263855,177.916550 580.430786,177.764145 585.584717,177.952011 
	C589.356628,178.089493 591.060120,176.819748 590.966187,172.829315 
	C590.716675,162.236511 591.514587,163.895126 600.393799,163.880325 
	C609.717407,163.864792 619.041260,163.895248 628.364807,163.932083 
	C630.860168,163.941940 633.731812,163.614182 633.844177,167.318817 
	C633.961426,171.182663 630.853333,170.806152 628.499878,170.812286 
	C620.180420,170.833984 611.849609,170.868240 603.545288,170.452957 
	C599.409546,170.246124 597.730591,171.443176 597.981018,175.671722 
	C598.226562,179.818909 598.068359,183.993225 598.005798,188.154388 
	C597.958923,191.272141 599.304932,192.710785 602.515442,192.630630 
	C607.507324,192.506012 612.504333,192.585266 617.998047,192.577774 
z"/>
<path fill="#000000" opacity="1.000000" stroke="none" 
	d="
M423.934906,170.794342 
	C414.372742,170.595520 405.220459,170.474792 396.067749,170.411621 
	C393.576569,170.394424 391.270599,170.327103 391.304626,166.914246 
	C391.336548,163.711365 393.575378,163.755692 395.826965,163.753647 
	C406.983673,163.743515 418.141693,163.816406 429.296387,163.658691 
	C432.996613,163.606384 434.532593,165.069748 434.193787,168.677490 
	C434.147339,169.172241 434.190094,169.676025 434.200897,170.175415 
	C434.364807,177.755844 434.410522,177.797958 442.259796,177.812332 
	C445.090546,177.817520 447.932251,177.672974 450.749359,177.872818 
	C454.705627,178.153458 457.822815,180.007462 460.156647,183.186508 
	C458.747162,184.943375 457.190063,184.534149 455.732666,184.524307 
	C451.237762,184.493958 446.742645,184.416946 442.248047,184.440140 
	C434.814728,184.478485 434.301849,185.016541 434.268127,192.378479 
	C434.237122,199.144745 434.237122,199.177994 427.730713,199.184906 
	C417.406677,199.195877 407.082489,199.169785 396.758514,199.131226 
	C394.059387,199.121155 391.028442,199.326904 391.167969,195.310486 
	C391.298767,191.544373 394.319427,192.027817 396.722961,192.007645 
	C405.048248,191.937729 413.376434,191.881958 421.699493,192.036972 
	C425.467529,192.107162 427.236115,190.761826 427.160339,186.847153 
	C427.089661,183.194580 427.487396,179.535324 427.525818,175.877396 
	C427.549561,173.614731 427.027130,171.516586 423.934906,170.794342 
z"/>
<path fill="#000000" opacity="1.000000" stroke="none" 
	d="
M510.645752,385.458252 
	C510.625275,383.199066 510.689819,381.361115 509.669647,379.579346 
	C508.279968,378.850037 505.776245,380.513977 505.144745,377.937012 
	C504.662750,375.970154 506.487183,375.040283 507.559418,373.879639 
	C511.819489,369.268433 518.665283,370.763123 520.243042,376.793365 
	C521.328186,380.940918 517.010498,378.811279 515.520874,380.357056 
	C514.479492,383.621460 515.425293,387.174255 514.871033,390.574249 
	C514.377869,393.599518 516.586792,399.177582 512.847107,399.086914 
	C508.591034,398.983765 511.427887,393.434479 510.706970,390.365723 
	C510.374084,388.948700 510.648224,387.389069 510.645752,385.458252 
z"/>
<path fill="#000000" opacity="1.000000" stroke="none" 
	d="
M514.501465,418.028809 
	C508.075104,418.047424 504.136902,414.586334 504.930420,409.773041 
	C505.502350,406.303955 507.343536,403.503998 511.102295,402.825043 
	C514.782288,402.160309 517.642639,403.686493 519.306763,407.005371 
	C521.073608,410.529114 520.482666,413.773376 517.439941,416.391876 
	C516.701782,417.027100 515.746338,417.409790 514.501465,418.028809 
M509.727234,411.046417 
	C510.476318,412.923157 511.621674,414.230011 513.859436,413.528381 
	C515.318420,413.070892 515.848328,411.840118 515.795776,410.411591 
	C515.733948,408.731323 514.885071,407.558929 513.152222,407.344391 
	C510.944824,407.071106 509.699646,408.098755 509.727234,411.046417 
z"/>
<path fill="#000000" opacity="1.000000" stroke="none" 
	d="
M530.217163,374.672729 
	C528.303101,372.147736 529.386353,369.585083 531.500549,370.844208 
	C534.996460,372.926300 537.521057,372.087555 540.520874,370.747955 
	C540.805786,370.620667 541.367310,371.112701 541.719604,371.279083 
	C542.450745,372.648499 541.816895,373.650604 541.022461,374.508881 
	C539.363281,376.301239 539.333008,377.917938 541.187866,379.610107 
	C542.208923,380.541656 543.012329,381.771729 541.737183,383.021179 
	C540.694580,384.042786 539.477356,383.476532 538.673523,382.593445 
	C536.582458,380.296265 534.747742,380.809814 532.840149,382.807251 
	C532.113220,383.568481 531.086304,383.928223 530.175781,383.173248 
	C529.100098,382.281311 529.185791,381.080383 530.009216,380.084320 
	C531.376526,378.430328 532.418579,376.838928 530.217163,374.672729 
z"/>
<path fill="#000000" opacity="1.000000" stroke="none" 
	d="
M470.106079,381.928284 
	C469.662292,382.730286 468.989166,383.642883 468.813354,383.555481 
	C465.651520,381.983215 462.819275,380.924072 459.371826,383.580505 
	C458.103912,384.557495 456.733978,382.145752 457.831177,380.754944 
	C459.817688,378.236816 460.032257,376.169006 457.692291,373.855011 
	C456.956726,373.127563 456.808075,372.059113 457.705078,371.196716 
	C458.549591,370.384766 459.648590,370.320618 460.384827,371.085205 
	C462.576202,373.360962 464.694916,373.851440 467.155060,371.487000 
	C467.744293,370.920715 468.703369,370.910248 469.411743,371.596069 
	C470.120117,372.281982 470.172699,373.299805 469.583160,373.833649 
	C466.420502,376.697327 468.460510,379.100647 470.106079,381.928284 
z"/>
<path fill="#000000" opacity="1.000000" stroke="none" 
	d="
M565.521484,377.096008 
	C566.125854,378.401459 566.744873,379.371979 567.399780,380.317596 
	C568.134155,381.377899 568.446350,382.437195 567.348389,383.425537 
	C566.387146,384.290863 565.393372,383.820221 564.684082,383.121490 
	C562.462219,380.932770 560.400085,381.022858 558.228943,383.193848 
	C557.436646,383.986115 556.438416,383.999481 555.608765,383.084320 
	C554.809387,382.202545 554.821350,381.114166 555.545105,380.368164 
	C557.669128,378.178741 557.810303,376.162903 555.574402,373.960205 
	C554.838135,373.234894 554.614502,372.127808 555.491089,371.279419 
	C556.568054,370.237030 557.610413,370.774689 558.582397,371.575165 
	C560.134644,372.853455 561.615051,374.395752 563.697021,372.290649 
	C564.759155,371.216614 566.128235,370.010620 567.494568,371.636078 
	C568.833130,373.228516 567.109863,374.297668 566.318481,375.471100 
	C566.040955,375.882599 565.806274,376.322968 565.521484,377.096008 
z"/>
<path fill="#000000" opacity="1.000000" stroke="none" 
	d="
M540.536987,399.558838 
	C541.639771,400.914429 543.139954,401.889404 541.978271,403.607208 
	C541.171753,404.799774 540.060181,404.401031 535.878967,401.492401 
	C535.311340,401.889740 534.650574,402.330048 534.013794,402.802643 
	C532.759705,403.733398 531.632202,405.603668 529.848694,403.887726 
	C528.251709,402.351288 529.834106,401.215179 530.747925,400.136688 
	C532.125488,398.510773 531.626465,397.144745 530.362793,395.767639 
	C529.474548,394.799683 528.308899,393.714325 529.487000,392.357697 
	C530.753174,390.899597 532.341736,391.452881 533.390198,392.618164 
	C536.164612,395.701813 538.848511,390.395233 541.459778,392.553802 
	C543.078003,395.232941 538.205139,396.648071 540.536987,399.558838 
z"/>
<path fill="#000000" opacity="1.000000" stroke="none" 
	d="
M485.409882,391.686584 
	C486.800751,392.523743 487.886414,393.258148 488.733795,393.831390 
	C490.225708,394.143982 490.823669,393.220062 491.556824,392.600677 
	C492.658844,391.669678 493.840881,391.060669 495.059021,392.241333 
	C496.196777,393.344055 495.419067,394.400909 494.594940,395.244110 
	C492.810425,397.069946 493.292969,398.712677 494.715607,400.483002 
	C495.530975,401.497650 496.430267,402.793549 494.922058,403.919159 
	C493.549744,404.943329 492.388245,403.995789 491.454285,403.041321 
	C489.905426,401.458435 488.469727,401.193787 486.821533,402.912323 
	C485.891632,403.881866 484.604858,404.851501 483.372040,403.700562 
	C481.886444,402.313782 483.202850,401.008728 484.023102,399.795746 
	C484.472443,399.131256 484.927948,398.470947 485.330200,397.882538 
	C481.891754,392.919189 481.891754,392.919189 485.409882,391.686584 
z"/>
<path fill="#000000" opacity="1.000000" stroke="none" 
	d="
M486.006836,382.810486 
	C481.706512,382.653198 481.693878,382.477112 485.469818,377.064972 
	C485.212341,376.582428 484.969391,375.974152 484.597046,375.459442 
	C483.667816,374.174988 481.657867,372.998352 482.953339,371.261902 
	C484.410278,369.308990 485.858429,371.105316 487.130890,372.048004 
	C488.790466,373.277405 490.212708,372.729004 491.618927,371.581726 
	C492.719635,370.683746 493.994110,370.083801 495.169250,371.270782 
	C496.493317,372.608246 495.432526,373.729095 494.433533,374.620880 
	C492.479187,376.365479 492.716949,377.907288 494.519501,379.613312 
	C495.450012,380.493958 496.578125,381.689575 495.085358,382.958801 
	C493.792084,384.058472 492.510590,383.303314 491.600800,382.268982 
	C489.607788,380.003082 487.919281,380.710052 486.006836,382.810486 
z"/>
</svg>